# xmcd
#
# Track frame offsets:
#	150
#	16115
#	32719
#	50855
#	67477
#	80151
#	92410
#	119025
#	153260
#	178156
#	191628
#	212021
#	237992
#	267777
#	297300
#
# Disc length: 4440 seconds
#
# Revision: 2
# Processed by: cddbd v1.5.2PL0 Copyright (c) Steve Scherf et al.
# Submitted via: audiograbber 1.83.01
#
DISCID=e111560f
DTITLE=Jesse Cook - Montreal
DYEAR=2004
DGENRE=Salsa
TTITLE0=Beloved
TTITLE1=Rattle and Burn
TTITLE2=Cascada
TTITLE3=Breeze From Saintes Maries
TTITLE4=Jumpstart
TTITLE5=Air
TTITLE6=Luna Llena
TTITLE7=Closer To Madness
TTITLE8=Tempest
TTITLE9=Querido Amigo
TTITLE10=Dance Of Spring
TTITLE11=Mario Takes A Walk
TTITLE12=Baghdad
TTITLE13=Fall At Your Feet
TTITLE14=Data
EXTD=YEAR: 2004
EXTT0=
EXTT1=
EXTT2=
EXTT3=
EXTT4=
EXTT5=
EXTT6=
EXTT7=
EXTT8=
EXTT9=
EXTT10=
EXTT11=
EXTT12=
EXTT13=
EXTT14=
PLAYORDER=
